{
  "source": "C:\\Users\\Peter\\Desktop\\stuff\\MIUN\\quantitative_research\\video_compression\\videos\\BVI-HD\\BVI-HD_CDVL_videos\\ORIG\\BubblesPitcher_1920x1080_60fps.mp4",
  "output": "C:\\Users\\Peter\\Desktop\\stuff\\MIUN\\quantitative_research\\video_compression\\compressed_videos\\BVI-HD\\av1\\2\\BubblesPitcher_1920x1080_60fps_av1.mkv",
  "codec": "av1",
  "ok": "Input #0, mov,mp4,m4a,3gp,3g2,mj2, from 'C:\\Users\\Peter\\Desktop\\stuff\\MIUN\\quantitative_research\\video_compression\\videos\\BVI-HD\\BVI-HD_CDVL_videos\\ORIG\\BubblesPitcher_1920x1080_60fps.mp4':\n  Metadata:\n    major_brand     : isom\n    minor_version   : 512\n    compatible_brands: isomiso2avc1mp41\n    encoder         : Lavf54.28.101\n  Duration: 00:00:05.00, start: 0.000000, bitrate: 188849 kb/s\n  Stream #0:0[0x1](und): Video: h264 (High 4:4:4 Predictive) (avc1 / 0x31637661), yuv420p(progressive), 1920x1080, 188844 kb/s, 60 fps, 60 tbr, 60 tbn (default)\n    Metadata:\n      handler_name    : VideoHandler\n      vendor_id       : [0][0][0][0]\n[out#0/matroska @ 00000232ee32cd80] Codec AVOption b:a (set bitrate (in bits/s)) has not been used for any stream. The most likely reason is either wrong type (e.g. a video option with no video streams) or that it is a private option of some decoder which was not actually used for any stream.\nStream mapping:\n  Stream #0:0 -> #0:0 (h264 (native) -> av1 (libsvtav1))\nPress [q] to stop, [?] for help\nSvt[info]: -------------------------------------------\nSvt[info]: SVT [version]:\tSVT-AV1 Encoder Lib v3.1.0-19-g6ecfe8ec\nSvt[info]: SVT [build]  :\tGCC 15.2.0\t 64 bit\nSvt[info]: LIB Build date: Aug 17 2025 11:37:13\nSvt[info]: -------------------------------------------\nSvt[info]: Level of Parallelism: 5\nSvt[info]: Number of PPCS 93\nSvt[info]: [asm level on system : up to avx2]\nSvt[info]: [asm level selected : up to avx2]\nSvt[info]: -------------------------------------------\nSvt[info]: SVT [config]: main profile\ttier (auto)\tlevel (auto)\nSvt[info]: SVT [config]: width / height / fps numerator / fps denominator \t\t: 1920 / 1080 / 60 / 1\nSvt[info]: SVT [config]: bit-depth / color format \t\t\t\t\t: 8 / YUV420\nSvt[info]: SVT [config]: preset / tune / pred struct \t\t\t\t\t: 4 / PSNR / random access\nSvt[info]: SVT [config]: gop size / mini-gop size / key-frame type \t\t\t: 321 / 16 / key frame\nSvt[info]: SVT [config]: BRC mode / target bitrate (kbps)\t\t\t\t: VBR / 2000 \nSvt[info]: SVT [config]: AQ mode / Variance Boost \t\t\t\t\t: 2 / 0\nSvt[info]: SVT [config]: sharpness / luminance-based QP bias \t\t\t\t: 0 / 0\nSvt[info]: SVT [config]: QP scale compress strength \t\t\t\t\t: 0\nSvt[info]: -------------------------------------------\nOutput #0, matroska, to 'C:\\Users\\Peter\\Desktop\\stuff\\MIUN\\quantitative_research\\video_compression\\compressed_videos\\BVI-HD\\av1\\2\\BubblesPitcher_1920x1080_60fps_av1.mkv':\n  Metadata:\n    major_brand     : isom\n    minor_version   : 512\n    compatible_brands: isomiso2avc1mp41\n    encoder         : Lavf62.3.100\n  Stream #0:0(und): Video: av1 (AV01 / 0x31305641), yuv420p(tv, progressive), 1920x1080, q=2-31, 2000 kb/s, 60 fps, 1k tbn (default)\n    Metadata:\n      encoder         : Lavc62.11.100 libsvtav1\n      handler_name    : VideoHandler\n      vendor_id       : [0][0][0][0]\n    Side data:\n      cpb: bitrate max/min/avg: 0/0/2000000 buffer size: 2000000 vbv_delay: N/A\nframe=    0 fps=0.0 q=0.0 size=       0KiB time=N/A bitrate=N/A speed=N/A elapsed=0:00:01.02    \nframe=    0 fps=0.0 q=0.0 size=       0KiB time=N/A bitrate=N/A speed=N/A elapsed=0:00:01.54    \nframe=    0 fps=0.0 q=0.0 size=       0KiB time=N/A bitrate=N/A speed=N/A elapsed=0:00:02.09    \nframe=    0 fps=0.0 q=0.0 size=       0KiB time=N/A bitrate=N/A speed=N/A elapsed=0:00:02.66    \nframe=    0 fps=0.0 q=0.0 size=       0KiB time=N/A bitrate=N/A speed=N/A elapsed=0:00:03.20    \nframe=    0 fps=0.0 q=0.0 size=       0KiB time=N/A bitrate=N/A speed=N/A elapsed=0:00:03.72    \nframe=    0 fps=0.0 q=0.0 size=       0KiB time=N/A bitrate=N/A speed=N/A elapsed=0:00:04.25    \nframe=    0 fps=0.0 q=0.0 size=       0KiB time=N/A bitrate=N/A speed=N/A elapsed=0:00:04.78    \nframe=    0 fps=0.0 q=0.0 size=       0KiB time=N/A bitrate=N/A speed=N/A elapsed=0:00:05.30    \nframe=    0 fps=0.0 q=0.0 size=       0KiB time=N/A bitrate=N/A speed=N/A elapsed=0:00:05.84    \nframe=    0 fps=0.0 q=0.0 size=       0KiB time=N/A bitrate=N/A speed=N/A elapsed=0:00:06.42    \nframe=    0 fps=0.0 q=0.0 size=       0KiB time=N/A bitrate=N/A speed=N/A elapsed=0:00:06.96    \nframe=    1 fps=0.1 q=5.0 size=       1KiB time=00:00:00.00 bitrate=N/A speed=   0x elapsed=0:00:07.49    \nframe=    6 fps=0.7 q=34.0 size=       1KiB time=00:00:00.08 bitrate=  68.4kbits/s speed=0.0104x elapsed=0:00:08.05    \nframe=   11 fps=1.3 q=33.0 size=       1KiB time=00:00:00.16 bitrate=  34.2kbits/s speed=0.0195x elapsed=0:00:08.56    \nframe=   17 fps=1.9 q=19.0 size=       1KiB time=00:00:00.26 bitrate=  21.4kbits/s speed=0.0292x elapsed=0:00:09.14    \nframe=   22 fps=2.3 q=30.0 size=       1KiB time=00:00:00.35 bitrate=  16.3kbits/s speed=0.036x elapsed=0:00:09.72    \nframe=   24 fps=2.3 q=32.0 size=       1KiB time=00:00:00.38 bitrate=  14.9kbits/s speed=0.0373x elapsed=0:00:10.28    \nframe=   27 fps=2.5 q=30.0 size=       1KiB time=00:00:00.43 bitrate=  13.1kbits/s speed=0.04x elapsed=0:00:10.83    \nframe=   32 fps=2.8 q=31.0 size=       1KiB time=00:00:00.51 bitrate=  11.0kbits/s speed=0.0453x elapsed=0:00:11.40    \nframe=   38 fps=3.2 q=30.0 size=       1KiB time=00:00:00.61 bitrate=   9.2kbits/s speed=0.0515x elapsed=0:00:11.96    \nframe=   39 fps=3.1 q=32.0 size=       1KiB time=00:00:00.63 bitrate=   9.0kbits/s speed=0.0506x elapsed=0:00:12.52    \nframe=   43 fps=3.3 q=33.0 size=       1KiB time=00:00:00.68 bitrate=   8.3kbits/s speed=0.0522x elapsed=0:00:13.09    \nframe=   45 fps=3.3 q=31.0 size=       1KiB time=00:00:00.73 bitrate=   7.8kbits/s speed=0.0536x elapsed=0:00:13.67    \nframe=   51 fps=3.6 q=34.0 size=       1KiB time=00:00:00.81 bitrate=   7.0kbits/s speed=0.0575x elapsed=0:00:14.19    \nframe=   54 fps=3.7 q=34.0 size=       1KiB time=00:00:00.88 bitrate=   6.4kbits/s speed=0.0599x elapsed=0:00:14.74    \nframe=   55 fps=3.6 q=32.0 size=       1KiB time=00:00:00.90 bitrate=   6.3kbits/s speed=0.0584x elapsed=0:00:15.40    \nframe=   58 fps=3.6 q=35.0 size=       1KiB time=00:00:00.95 bitrate=   6.0kbits/s speed=0.0593x elapsed=0:00:16.01    \nframe=   63 fps=3.8 q=35.0 size=       1KiB time=00:00:01.03 bitrate=   5.5kbits/s speed=0.0623x elapsed=0:00:16.58    \nframe=   69 fps=4.0 q=33.0 size=       1KiB time=00:00:01.13 bitrate=   5.0kbits/s speed=0.066x elapsed=0:00:17.18    \nframe=   70 fps=3.9 q=33.0 size=       1KiB time=00:00:01.15 bitrate=   5.0kbits/s speed=0.0643x elapsed=0:00:17.89    \nframe=   74 fps=4.0 q=35.0 size=       1KiB time=00:00:01.21 bitrate=   4.7kbits/s speed=0.0658x elapsed=0:00:18.49    \nframe=   79 fps=4.1 q=35.0 size=       1KiB time=00:00:01.26 bitrate=   4.5kbits/s speed=0.0664x elapsed=0:00:19.07    \nframe=   83 fps=4.2 q=38.0 size=       1KiB time=00:00:01.36 bitrate=   4.2kbits/s speed=0.0696x elapsed=0:00:19.64    \nframe=   86 fps=4.3 q=35.0 size=       1KiB time=00:00:01.40 bitrate=   4.1kbits/s speed=0.0694x elapsed=0:00:20.18    \nframe=   87 fps=4.2 q=38.0 size=       1KiB time=00:00:01.43 bitrate=   4.0kbits/s speed=0.0686x elapsed=0:00:20.89    \nframe=   90 fps=4.2 q=36.0 size=       1KiB time=00:00:01.48 bitrate=   3.8kbits/s speed=0.0687x elapsed=0:00:21.58    \nframe=   95 fps=4.3 q=37.0 size=       1KiB time=00:00:01.56 bitrate=   3.6kbits/s speed=0.0708x elapsed=0:00:22.13    \nframe=  100 fps=4.4 q=37.0 size=       1KiB time=00:00:01.65 bitrate=   3.5kbits/s speed=0.0726x elapsed=0:00:22.71    \nframe=  103 fps=4.4 q=40.0 size=       1KiB time=00:00:01.68 bitrate=   3.4kbits/s speed=0.0724x elapsed=0:00:23.24    \nframe=  108 fps=4.5 q=38.0 size=       1KiB time=00:00:01.75 bitrate=   3.3kbits/s speed=0.073x elapsed=0:00:23.97    \nframe=  111 fps=4.5 q=40.0 size=       1KiB time=00:00:01.83 bitrate=   3.1kbits/s speed=0.0743x elapsed=0:00:24.67    \nframe=  116 fps=4.6 q=39.0 size=       1KiB time=00:00:01.91 bitrate=   3.0kbits/s speed=0.076x elapsed=0:00:25.22    \nframe=  118 fps=4.6 q=39.0 size=       1KiB time=00:00:01.95 bitrate=   2.9kbits/s speed=0.0755x elapsed=0:00:25.84    \nframe=  121 fps=4.6 q=30.0 size=       1KiB time=00:00:02.00 bitrate=   2.8kbits/s speed=0.0753x elapsed=0:00:26.57    \nframe=  123 fps=4.5 q=41.0 size=       1KiB time=00:00:02.03 bitrate=   2.8kbits/s speed=0.0745x elapsed=0:00:27.28    \nframe=  127 fps=4.5 q=42.0 size=       1KiB time=00:00:02.10 bitrate=   2.7kbits/s speed=0.075x elapsed=0:00:27.99    \nframe=  132 fps=4.6 q=39.0 size=       1KiB time=00:00:02.18 bitrate=   2.6kbits/s speed=0.0764x elapsed=0:00:28.57    \nframe=  133 fps=4.6 q=38.0 size=       1KiB time=00:00:02.20 bitrate=   2.6kbits/s speed=0.0754x elapsed=0:00:29.17    \nframe=  137 fps=4.6 q=28.0 size=       1KiB time=00:00:02.21 bitrate=   2.6kbits/s speed=0.0741x elapsed=0:00:29.90    \nframe=  138 fps=4.5 q=45.0 size=       1KiB time=00:00:02.28 bitrate=   2.5kbits/s speed=0.0745x elapsed=0:00:30.63    \nframe=  142 fps=4.5 q=48.0 size=       1KiB time=00:00:02.31 bitrate=   2.5kbits/s speed=0.0739x elapsed=0:00:31.34    \nframe=  146 fps=4.6 q=49.0 size=       1KiB time=00:00:02.40 bitrate=   2.4kbits/s speed=0.0751x elapsed=0:00:31.97    \nframe=  148 fps=4.5 q=49.0 size=       1KiB time=00:00:02.45 bitrate=   2.3kbits/s speed=0.0753x elapsed=0:00:32.55    \nframe=  150 fps=4.5 q=50.0 size=       1KiB time=00:00:02.46 bitrate=   2.3kbits/s speed=0.0745x elapsed=0:00:33.12    \nframe=  152 fps=4.5 q=50.0 size=       1KiB time=00:00:02.50 bitrate=   2.3kbits/s speed=0.0738x elapsed=0:00:33.85    \nframe=  154 fps=4.5 q=51.0 size=       1KiB time=00:00:02.55 bitrate=   2.2kbits/s speed=0.0738x elapsed=0:00:34.55    \nframe=  157 fps=4.5 q=44.0 size=       1KiB time=00:00:02.58 bitrate=   2.2kbits/s speed=0.0734x elapsed=0:00:35.21    \nframe=  161 fps=4.5 q=26.0 size=       1KiB time=00:00:02.66 bitrate=   2.1kbits/s speed=0.0743x elapsed=0:00:35.87    \nframe=  164 fps=4.5 q=51.0 size=       1KiB time=00:00:02.71 bitrate=   2.1kbits/s speed=0.0746x elapsed=0:00:36.42    \nframe=  166 fps=4.5 q=51.0 size=       1KiB time=00:00:02.75 bitrate=   2.1kbits/s speed=0.0743x elapsed=0:00:37.01    \nframe=  167 fps=4.4 q=48.0 size=       1KiB time=00:00:02.75 bitrate=   2.1kbits/s speed=0.0728x elapsed=0:00:37.76    \nframe=  170 fps=4.4 q=51.0 size=       1KiB time=00:00:02.81 bitrate=   2.0kbits/s speed=0.0732x elapsed=0:00:38.49    \nframe=  171 fps=4.4 q=48.0 size=       1KiB time=00:00:02.83 bitrate=   2.0kbits/s speed=0.0723x elapsed=0:00:39.19    \nframe=  174 fps=4.4 q=52.0 size=       1KiB time=00:00:02.88 bitrate=   2.0kbits/s speed=0.0725x elapsed=0:00:39.77    \nframe=  177 fps=4.4 q=31.0 size=       1KiB time=00:00:02.93 bitrate=   1.9kbits/s speed=0.0728x elapsed=0:00:40.30    \nframe=  181 fps=4.4 q=47.0 size=       1KiB time=00:00:03.00 bitrate=   1.9kbits/s speed=0.0734x elapsed=0:00:40.86    \nframe=  181 fps=4.4 q=47.0 size=       1KiB time=00:00:03.00 bitrate=   1.9kbits/s speed=0.0722x elapsed=0:00:41.55    \nframe=  182 fps=4.3 q=52.0 size=       1KiB time=00:00:03.01 bitrate=   1.9kbits/s speed=0.0715x elapsed=0:00:42.20    \nframe=  184 fps=4.3 q=52.0 size=       1KiB time=00:00:03.03 bitrate=   1.9kbits/s speed=0.0707x elapsed=0:00:42.88    \nframe=  186 fps=4.3 q=52.0 size=       1KiB time=00:00:03.08 bitrate=   1.8kbits/s speed=0.071x elapsed=0:00:43.45    \nframe=  189 fps=4.3 q=47.0 size=       1KiB time=00:00:03.11 bitrate=   1.8kbits/s speed=0.0708x elapsed=0:00:44.00    \nframe=  194 fps=4.4 q=55.0 size=       1KiB time=00:00:03.20 bitrate=   1.8kbits/s speed=0.0718x elapsed=0:00:44.55    \nframe=  197 fps=4.4 q=48.0 size=       1KiB time=00:00:03.26 bitrate=   1.7kbits/s speed=0.0724x elapsed=0:00:45.12    \nframe=  198 fps=4.3 q=55.0 size=       1KiB time=00:00:03.28 bitrate=   1.7kbits/s speed=0.0717x elapsed=0:00:45.81    \nframe=  199 fps=4.3 q=51.0 size=       1KiB time=00:00:03.28 bitrate=   1.7kbits/s speed=0.0706x elapsed=0:00:46.48    \nframe=  200 fps=4.2 q=55.0 size=       1KiB time=00:00:03.31 bitrate=   1.7kbits/s speed=0.0703x elapsed=0:00:47.14    \nframe=  205 fps=4.3 q=49.0 size=       1KiB time=00:00:03.40 bitrate=   1.7kbits/s speed=0.0713x elapsed=0:00:47.70    \nframe=  205 fps=4.2 q=49.0 size=       1KiB time=00:00:03.40 bitrate=   1.7kbits/s speed=0.0704x elapsed=0:00:48.32    \nframe=  209 fps=4.3 q=39.0 size=       1KiB time=00:00:03.46 bitrate=   1.6kbits/s speed=0.0709x elapsed=0:00:48.91    \nframe=  215 fps=4.3 q=54.0 size=       1KiB time=00:00:03.53 bitrate=   1.6kbits/s speed=0.0713x elapsed=0:00:49.56    \nframe=  217 fps=4.3 q=49.0 size=       1KiB time=00:00:03.60 bitrate=   1.6kbits/s speed=0.0718x elapsed=0:00:50.11    \nframe=  221 fps=4.4 q=52.0 size=       1KiB time=00:00:03.60 bitrate=   1.6kbits/s speed=0.071x elapsed=0:00:50.67    \nframe=  221 fps=4.3 q=52.0 size=       1KiB time=00:00:03.66 bitrate=   1.6kbits/s speed=0.0716x elapsed=0:00:51.21    \nframe=  225 fps=4.3 q=39.0 size=       1KiB time=00:00:03.73 bitrate=   1.5kbits/s speed=0.0721x elapsed=0:00:51.77    \nframe=  233 fps=4.5 q=51.0 size=       1KiB time=00:00:03.86 bitrate=   1.5kbits/s speed=0.0739x elapsed=0:00:52.31    \nframe=  233 fps=4.4 q=51.0 size=       1KiB time=00:00:03.86 bitrate=   1.5kbits/s speed=0.0732x elapsed=0:00:52.84    \nframe=  233 fps=4.4 q=51.0 size=       1KiB time=00:00:03.86 bitrate=   1.5kbits/s speed=0.0724x elapsed=0:00:53.40    \nframe=  237 fps=4.4 q=55.0 size=       1KiB time=00:00:03.93 bitrate=   1.4kbits/s speed=0.0729x elapsed=0:00:53.96    \nframe=  241 fps=4.4 q=42.0 size=       1KiB time=00:00:04.00 bitrate=   1.4kbits/s speed=0.0734x elapsed=0:00:54.51    \nframe=  245 fps=4.5 q=56.0 size=       1KiB time=00:00:04.06 bitrate=   1.4kbits/s speed=0.0739x elapsed=0:00:55.03    \nframe=  249 fps=4.5 q=55.0 size=       1KiB time=00:00:04.13 bitrate=   1.4kbits/s speed=0.0744x elapsed=0:00:55.57    \nframe=  249 fps=4.4 q=55.0 size=       1KiB time=00:00:04.13 bitrate=   1.4kbits/s speed=0.0737x elapsed=0:00:56.10    \nframe=  253 fps=4.5 q=56.0 size=       1KiB time=00:00:04.20 bitrate=   1.4kbits/s speed=0.0742x elapsed=0:00:56.62    \nframe=  261 fps=4.6 q=56.0 size=       1KiB time=00:00:04.33 bitrate=   1.3kbits/s speed=0.0758x elapsed=0:00:57.19    \nframe=  265 fps=4.6 q=55.0 size=       1KiB time=00:00:04.40 bitrate=   1.3kbits/s speed=0.0762x elapsed=0:00:57.71    \nframe=  265 fps=4.5 q=55.0 size=       1KiB time=00:00:04.40 bitrate=   1.3kbits/s speed=0.0755x elapsed=0:00:58.25    \nframe=  269 fps=4.6 q=56.0 size=       1KiB time=00:00:04.46 bitrate=   1.3kbits/s speed=0.0759x elapsed=0:00:58.83    \nframe=  273 fps=4.6 q=44.0 size=       1KiB time=00:00:04.53 bitrate=   1.3kbits/s speed=0.0764x elapsed=0:00:59.37    \nframe=  281 fps=4.7 q=55.0 size=       1KiB time=00:00:04.66 bitrate=   1.2kbits/s speed=0.0779x elapsed=0:00:59.93    \nframe=  281 fps=4.6 q=55.0 size=       1KiB time=00:00:04.66 bitrate=   1.2kbits/s speed=0.0772x elapsed=0:01:00.46    \nframe=  285 fps=4.7 q=57.0 size=       1KiB time=00:00:04.73 bitrate=   1.2kbits/s speed=0.0775x elapsed=0:01:01.05    \n[out#0/matroska @ 00000232ee32cd80] video:1450KiB audio:0KiB subtitle:0KiB other streams:0KiB global headers:0KiB muxing overhead: 0.143376%\nframe=  300 fps=4.9 q=57.0 Lsize=    1452KiB time=00:00:04.98 bitrate=2387.2kbits/s speed=0.081x elapsed=0:01:01.53    \n",
  "seconds": 61.98367977142334,
  "probe_out": {}
}